<svg width="22" height="22" viewBox="0 0 22 22" fill="none" xmlns="http://www.w3.org/2000/svg">
<path fill-rule="evenodd" clip-rule="evenodd" d="M1.17157 1.17157C0 2.34315 0 4.22876 0 8V14C0 17.7712 0 19.6569 1.17157 20.8284C2.34315 22 4.22876 22 8 22H14C17.7712 22 19.6569 22 20.8284 20.8284C22 19.6569 22 17.7712 22 14V8C22 4.22876 22 2.34315 20.8284 1.17157C19.6569 0 17.7712 0 14 0H8C4.22876 0 2.34315 0 1.17157 1.17157ZM15.6328 10.9983H16.5012C17.3002 10.9983 17.9486 11.6467 17.9486 12.4457C17.9486 13.2446 17.3002 13.893 16.5012 13.893H15.6328V16.2088C15.6328 16.8486 15.1147 17.3667 14.4749 17.3667H12.2749V16.4983C12.2749 15.6357 11.5744 14.9351 10.7118 14.9351C9.84913 14.9351 9.1486 15.6357 9.1486 16.4983V17.3667H6.9486C6.30887 17.3667 5.79071 16.8486 5.79071 16.2088L5.7936 14.0088H6.65913C7.52176 14.0088 8.22229 13.3083 8.22229 12.4457C8.22229 11.583 7.52176 10.8825 6.65913 10.8825H5.7936L5.7965 8.68252C5.7965 8.04278 6.30887 7.52462 6.9486 7.52462H9.26439V6.6562C9.26439 5.85725 9.91281 5.20883 10.7118 5.20883C11.5107 5.20883 12.1591 5.85725 12.1591 6.6562V7.52462H14.4749C15.1147 7.52462 15.6328 8.04278 15.6328 8.68252V10.9983Z" fill="black"/>
</svg>
