<svg width="22" height="22" viewBox="0 0 22 22" fill="none" xmlns="http://www.w3.org/2000/svg">
<path fill-rule="evenodd" clip-rule="evenodd" d="M1.17157 1.17157C0 2.34315 0 4.22876 0 8V14C0 17.7712 0 19.6569 1.17157 20.8284C2.34315 22 4.22876 22 8 22H14C17.7712 22 19.6569 22 20.8284 20.8284C22 19.6569 22 17.7712 22 14V8C22 4.22876 22 2.34315 20.8284 1.17157C19.6569 0 17.7712 0 14 0H8C4.22876 0 2.34315 0 1.17157 1.17157ZM4.49219 11.5657C4.49219 7.86998 7.48858 4.87305 11.1848 4.87305C14.8808 4.87305 17.8774 7.86998 17.8774 11.5657C17.8774 15.2619 14.881 18.2577 11.1848 18.2577C7.48858 18.2577 4.49219 15.2619 4.49219 11.5657ZM11.7971 11.5377H12.956L13.1068 10.0787H11.7974V9.2191C11.7974 8.89731 12.0107 8.82203 12.1616 8.82203H13.0851V7.40469L11.8132 7.3998C10.4007 7.3998 10.0795 8.45621 10.0795 9.13295V10.0785H9.2625V11.5377H10.0795V15.6706H11.7971V11.5377Z" fill="black"/>
</svg>
