<svg width="22" height="22" viewBox="0 0 22 22" fill="none" xmlns="http://www.w3.org/2000/svg">
<path fill-rule="evenodd" clip-rule="evenodd" d="M1.17157 1.17157C0 2.34315 0 4.22876 0 8V14C0 17.7712 0 19.6569 1.17157 20.8284C2.34315 22 4.22876 22 8 22H14C17.7712 22 19.6569 22 20.8284 20.8284C22 19.6569 22 17.7712 22 14V8C22 4.22876 22 2.34315 20.8284 1.17157C19.6569 0 17.7712 0 14 0H8C4.22876 0 2.34315 0 1.17157 1.17157ZM4.63281 10.9983C4.63281 7.49567 7.4986 4.62988 11.0012 4.62988C14.5039 4.62988 17.3697 7.49567 17.3697 10.9983C17.3697 14.5009 14.5039 17.3667 11.0012 17.3667C7.4986 17.3667 4.63281 14.5009 4.63281 10.9983ZM10.3644 14.1825V15.4562H11.6381V14.1825H10.3644ZM12.4023 11.1257L12.9754 10.5525C13.2939 10.1704 13.5486 9.66094 13.5486 9.08778C13.5486 7.68672 12.4023 6.54041 11.0012 6.54041C9.60018 6.54041 8.45387 7.68672 8.45387 9.08778H9.72755C9.72755 8.38725 10.3007 7.81409 11.0012 7.81409C11.7018 7.81409 12.2749 8.38725 12.2749 9.08778C12.2749 9.46988 12.1475 9.7883 11.8928 9.97936L11.1286 10.8073C10.6191 11.253 10.3644 11.8899 10.3644 12.5904V12.9088H11.6381C11.6381 11.9536 11.8928 11.5715 12.4023 11.1257Z" fill="black"/>
</svg>
