<svg width="18" height="20" viewBox="0 0 18 20" fill="none" xmlns="http://www.w3.org/2000/svg">
<path d="M13.7065 5.404C13.5175 5.216 13.2585 5.121 12.9995 5.121C12.7405 5.121 12.4815 5.216 12.2925 5.404L9.9995 7.697V1C9.9995 0.448 9.5515 0 8.9995 0C8.4475 0 7.9995 0.448 7.9995 1V7.697L5.7065 5.404C5.5175 5.216 5.2665 5.111 4.9995 5.111C4.7325 5.111 4.4815 5.216 4.2925 5.404C3.9025 5.794 3.9025 6.428 4.2925 6.818L8.9995 11.5L13.7085 6.816C14.0965 6.429 14.0965 5.794 13.7065 5.404Z" fill="#27839D"/>
<path d="M17.987 14C17.987 13.895 17.983 13.789 17.948 13.684L15.948 7.684C15.812 7.275 15.431 7 15 7H14.781C14.687 7.188 14.571 7.368 14.414 7.525L12.932 9H14.28L15.947 14H2.054L3.721 9H5.069L3.586 7.525C3.429 7.368 3.312 7.188 3.219 7H3C2.569 7 2.188 7.275 2.052 7.684L0.052 13.684C0.017 13.789 0.013 13.895 0.013 14C1.11759e-08 14 0 19 0 19C0 19.553 0.447 20 1 20H17C17.553 20 18 19.553 18 19C18 19 18 14 17.987 14Z" fill="#27839D"/>
</svg>
