<svg width="20" height="14" viewBox="0 0 20 14" fill="none" xmlns="http://www.w3.org/2000/svg">
<path d="M19.3548 0.548828H10.3226L0.351562 7.44965V13.1853H19.3548L20 12.8069V11.6087L19.5801 11.2094V10.0766L20 9.7654V7.92207L19.6224 7.56032V6.40145L20 6.07871V4.23543L19.6224 3.90149V2.88586L20 2.39215V1.19398C20 0.837657 19.7111 0.548828 19.3548 0.548828Z" fill="#E5646E"/>
<path d="M10.0137 2.39258H20.0007V4.2359H10.0137V2.39258Z" fill="#F2F2F6"/>
<path d="M10 6.0791L10.3226 7.92242H20V6.0791H10Z" fill="#F2F2F6"/>
<path d="M0.645156 10.871V7.58594L0 7.92164V9.76496L0.273438 9.99805V11.209L0 11.6083V12.8064C0 13.1628 0.288867 13.4516 0.645156 13.4516H19.3548C19.7111 13.4516 20 13.1627 20 12.8064H2.58066C1.51172 12.8064 0.645156 11.9399 0.645156 10.871Z" fill="#DB4655"/>
<path d="M10.3226 0.548828H0.645156L0.234375 1.19399L0.645156 7.92208H10.3226V0.548828Z" fill="#5055A0"/>
<path d="M0.645156 0.548828C0.288867 0.548828 0 0.837657 0 1.19399V7.92208H0.645156V0.548828Z" fill="#3F3F8F"/>
<path d="M1.29289 1.98695C1.11457 1.98695 0.96875 1.8425 0.96875 1.66437C0.96875 1.48625 1.11145 1.3418 1.28977 1.3418H1.29293C1.47125 1.3418 1.61551 1.48625 1.61551 1.66437C1.61551 1.8425 1.47117 1.98695 1.29289 1.98695Z" fill="white"/>
<path d="M1.29289 4.56801C1.11457 4.56801 0.96875 4.42356 0.96875 4.24543C0.96875 4.06731 1.11145 3.92285 1.28977 3.92285H1.29293C1.47125 3.92285 1.61551 4.06731 1.61551 4.24543C1.61551 4.42356 1.47117 4.56801 1.29289 4.56801Z" fill="white"/>
<path d="M1.29289 7.14807C1.11457 7.14807 0.96875 7.00362 0.96875 6.8255C0.96875 6.64738 1.11145 6.50293 1.28977 6.50293H1.29293C1.47125 6.50293 1.61551 6.64738 1.61551 6.8255C1.61551 7.00362 1.47117 7.14807 1.29289 7.14807Z" fill="white"/>
<path d="M1.29289 3.27699C1.11457 3.27699 0.96875 3.13254 0.96875 2.95441C0.96875 2.77629 1.11145 2.63184 1.28977 2.63184H1.29293C1.47125 2.63184 1.61551 2.77629 1.61551 2.95441C1.61547 3.13254 1.47117 3.27699 1.29289 3.27699Z" fill="#F2F2F6"/>
<path d="M1.29289 5.85805C1.11457 5.85805 0.96875 5.71359 0.96875 5.53547C0.96875 5.35734 1.11145 5.21289 1.28977 5.21289H1.29293C1.47125 5.21289 1.61551 5.35734 1.61551 5.53547C1.61551 5.71359 1.47117 5.85805 1.29289 5.85805Z" fill="#F2F2F6"/>
<path d="M9.03508 1.98695C8.85676 1.98695 8.71094 1.8425 8.71094 1.66437C8.71094 1.48625 8.85363 1.3418 9.03195 1.3418H9.03512C9.21344 1.3418 9.3577 1.48625 9.3577 1.66437C9.3577 1.8425 9.2134 1.98695 9.03508 1.98695Z" fill="white"/>
<path d="M9.03508 4.56801C8.85676 4.56801 8.71094 4.42356 8.71094 4.24543C8.71094 4.06731 8.85363 3.92285 9.03195 3.92285H9.03512C9.21344 3.92285 9.3577 4.06731 9.3577 4.24543C9.3577 4.42356 9.2134 4.56801 9.03508 4.56801Z" fill="white"/>
<path d="M9.03508 7.14807C8.85676 7.14807 8.71094 7.00362 8.71094 6.8255C8.71094 6.64738 8.85363 6.50293 9.03195 6.50293H9.03512C9.21344 6.50293 9.3577 6.64738 9.3577 6.8255C9.3577 7.00362 9.2134 7.14807 9.03508 7.14807Z" fill="white"/>
<path d="M9.03508 3.27699C8.85676 3.27699 8.71094 3.13254 8.71094 2.95441C8.71094 2.77629 8.85363 2.63184 9.03195 2.63184H9.03512C9.21344 2.63184 9.3577 2.77629 9.3577 2.95441C9.3577 3.13254 9.2134 3.27699 9.03508 3.27699Z" fill="#F2F2F6"/>
<path d="M9.03508 5.85805C8.85676 5.85805 8.71094 5.71359 8.71094 5.53547C8.71094 5.35734 8.85363 5.21289 9.03195 5.21289H9.03512C9.21344 5.21289 9.3577 5.35734 9.3577 5.53547C9.3577 5.71359 9.2134 5.85805 9.03508 5.85805Z" fill="#F2F2F6"/>
<path d="M3.22844 1.98695C3.05012 1.98695 2.9043 1.8425 2.9043 1.66437C2.9043 1.48625 3.04699 1.3418 3.22531 1.3418H3.22848C3.4068 1.3418 3.55105 1.48625 3.55105 1.66437C3.55105 1.8425 3.40676 1.98695 3.22844 1.98695Z" fill="#F2F2F6"/>
<path d="M3.22844 4.56801C3.05012 4.56801 2.9043 4.42356 2.9043 4.24543C2.9043 4.06731 3.04699 3.92285 3.22531 3.92285H3.22848C3.4068 3.92285 3.55105 4.06731 3.55105 4.24543C3.55105 4.42356 3.40676 4.56801 3.22844 4.56801Z" fill="#F2F2F6"/>
<path d="M3.22844 7.14807C3.05012 7.14807 2.9043 7.00362 2.9043 6.8255C2.9043 6.64738 3.04699 6.50293 3.22531 6.50293H3.22848C3.4068 6.50293 3.55105 6.64738 3.55105 6.8255C3.55105 7.00362 3.40676 7.14807 3.22844 7.14807Z" fill="#F2F2F6"/>
<path d="M3.22844 3.27699C3.05012 3.27699 2.9043 3.13254 2.9043 2.95441C2.9043 2.77629 3.04699 2.63184 3.22531 2.63184H3.22848C3.4068 2.63184 3.55105 2.77629 3.55105 2.95441C3.55102 3.13254 3.40676 3.27699 3.22844 3.27699Z" fill="white"/>
<path d="M3.22844 5.85805C3.05012 5.85805 2.9043 5.71359 2.9043 5.53547C2.9043 5.35734 3.04699 5.21289 3.22531 5.21289H3.22848C3.4068 5.21289 3.55105 5.35734 3.55105 5.53547C3.55105 5.71359 3.40676 5.85805 3.22844 5.85805Z" fill="white"/>
<path d="M2.26164 2.63246C2.08332 2.63246 1.9375 2.48801 1.9375 2.30988C1.9375 2.13176 2.08019 1.9873 2.25851 1.9873H2.26168C2.44 1.9873 2.58425 2.13176 2.58425 2.30988C2.58422 2.48805 2.43996 2.63246 2.26164 2.63246Z" fill="white"/>
<path d="M2.26164 5.21254C2.08332 5.21254 1.9375 5.06809 1.9375 4.88996C1.9375 4.71184 2.08019 4.56738 2.25851 4.56738H2.26168C2.44 4.56738 2.58425 4.71184 2.58425 4.88996C2.58425 5.06809 2.43996 5.21254 2.26164 5.21254Z" fill="white"/>
<path d="M2.26164 3.9225C2.08332 3.9225 1.9375 3.77805 1.9375 3.59992C1.9375 3.4218 2.08019 3.27734 2.25851 3.27734H2.26168C2.44 3.27734 2.58425 3.4218 2.58425 3.59992C2.58425 3.77805 2.43996 3.9225 2.26164 3.9225Z" fill="#F2F2F6"/>
<path d="M2.26164 6.50355C2.08332 6.50355 1.9375 6.3591 1.9375 6.18098C1.9375 6.00285 2.08019 5.8584 2.25851 5.8584H2.26168C2.44 5.8584 2.58425 6.00285 2.58425 6.18098C2.58425 6.3591 2.43996 6.50355 2.26164 6.50355Z" fill="#F2F2F6"/>
<path d="M5.16398 1.98695C4.98566 1.98695 4.83984 1.8425 4.83984 1.66437C4.83984 1.48625 4.98254 1.3418 5.16086 1.3418H5.16402C5.34234 1.3418 5.4866 1.48625 5.4866 1.66437C5.4866 1.8425 5.34227 1.98695 5.16398 1.98695Z" fill="white"/>
<path d="M5.16398 4.56801C4.98566 4.56801 4.83984 4.42356 4.83984 4.24543C4.83984 4.06731 4.98254 3.92285 5.16086 3.92285H5.16402C5.34234 3.92285 5.4866 4.06731 5.4866 4.24543C5.4866 4.42356 5.34227 4.56801 5.16398 4.56801Z" fill="white"/>
<path d="M5.16398 7.14807C4.98566 7.14807 4.83984 7.00362 4.83984 6.8255C4.83984 6.64738 4.98254 6.50293 5.16086 6.50293H5.16402C5.34234 6.50293 5.4866 6.64738 5.4866 6.8255C5.4866 7.00362 5.34227 7.14807 5.16398 7.14807Z" fill="white"/>
<path d="M5.16398 3.27699C4.98566 3.27699 4.83984 3.13254 4.83984 2.95441C4.83984 2.77629 4.98254 2.63184 5.16086 2.63184H5.16402C5.34234 2.63184 5.4866 2.77629 5.4866 2.95441C5.48656 3.13254 5.34227 3.27699 5.16398 3.27699Z" fill="#F2F2F6"/>
<path d="M5.16398 5.85805C4.98566 5.85805 4.83984 5.71359 4.83984 5.53547C4.83984 5.35734 4.98254 5.21289 5.16086 5.21289H5.16402C5.34234 5.21289 5.4866 5.35734 5.4866 5.53547C5.4866 5.71359 5.34227 5.85805 5.16398 5.85805Z" fill="#F2F2F6"/>
<path d="M4.19719 2.63246C4.01887 2.63246 3.87305 2.48801 3.87305 2.30988C3.87305 2.13176 4.01574 1.9873 4.19406 1.9873H4.19723C4.37555 1.9873 4.5198 2.13176 4.5198 2.30988C4.5198 2.48805 4.37551 2.63246 4.19719 2.63246Z" fill="#F2F2F6"/>
<path d="M4.19719 5.21254C4.01887 5.21254 3.87305 5.06809 3.87305 4.88996C3.87305 4.71184 4.01574 4.56738 4.19406 4.56738H4.19723C4.37555 4.56738 4.5198 4.71184 4.5198 4.88996C4.5198 5.06809 4.37551 5.21254 4.19719 5.21254Z" fill="#F2F2F6"/>
<path d="M4.19719 3.9225C4.01887 3.9225 3.87305 3.77805 3.87305 3.59992C3.87305 3.4218 4.01574 3.27734 4.19406 3.27734H4.19723C4.37555 3.27734 4.5198 3.4218 4.5198 3.59992C4.5198 3.77805 4.37551 3.9225 4.19719 3.9225Z" fill="white"/>
<path d="M4.19719 6.50355C4.01887 6.50355 3.87305 6.3591 3.87305 6.18098C3.87305 6.00285 4.01574 5.8584 4.19406 5.8584H4.19723C4.37555 5.8584 4.5198 6.00285 4.5198 6.18098C4.5198 6.3591 4.37551 6.50355 4.19719 6.50355Z" fill="white"/>
<path d="M7.09758 1.98695C6.91926 1.98695 6.77344 1.8425 6.77344 1.66437C6.77344 1.48625 6.91613 1.3418 7.09445 1.3418H7.09762C7.27594 1.3418 7.4202 1.48625 7.4202 1.66437C7.4202 1.8425 7.2759 1.98695 7.09758 1.98695Z" fill="#F2F2F6"/>
<path d="M7.09758 4.56801C6.91926 4.56801 6.77344 4.42356 6.77344 4.24543C6.77344 4.06731 6.91613 3.92285 7.09445 3.92285H7.09762C7.27594 3.92285 7.4202 4.06731 7.4202 4.24543C7.4202 4.42356 7.2759 4.56801 7.09758 4.56801Z" fill="#F2F2F6"/>
<path d="M7.09758 7.14807C6.91926 7.14807 6.77344 7.00362 6.77344 6.8255C6.77344 6.64738 6.91613 6.50293 7.09445 6.50293H7.09762C7.27594 6.50293 7.4202 6.64738 7.4202 6.8255C7.4202 7.00362 7.2759 7.14807 7.09758 7.14807Z" fill="#F2F2F6"/>
<path d="M7.09758 3.27699C6.91926 3.27699 6.77344 3.13254 6.77344 2.95441C6.77344 2.77629 6.91613 2.63184 7.09445 2.63184H7.09762C7.27594 2.63184 7.4202 2.77629 7.4202 2.95441C7.42016 3.13254 7.2759 3.27699 7.09758 3.27699Z" fill="white"/>
<path d="M7.09758 5.85805C6.91926 5.85805 6.77344 5.71359 6.77344 5.53547C6.77344 5.35734 6.91613 5.21289 7.09445 5.21289H7.09762C7.27594 5.21289 7.4202 5.35734 7.4202 5.53547C7.4202 5.71359 7.2759 5.85805 7.09758 5.85805Z" fill="white"/>
<path d="M6.12883 2.63246C5.95051 2.63246 5.80469 2.48801 5.80469 2.30988C5.80469 2.13176 5.94738 1.9873 6.1257 1.9873H6.12887C6.30719 1.9873 6.45145 2.13176 6.45145 2.30988C6.45141 2.48805 6.30715 2.63246 6.12883 2.63246Z" fill="white"/>
<path d="M6.12883 5.21254C5.95051 5.21254 5.80469 5.06809 5.80469 4.88996C5.80469 4.71184 5.94738 4.56738 6.1257 4.56738H6.12887C6.30719 4.56738 6.45145 4.71184 6.45145 4.88996C6.45145 5.06809 6.30715 5.21254 6.12883 5.21254Z" fill="white"/>
<path d="M6.12883 3.9225C5.95051 3.9225 5.80469 3.77805 5.80469 3.59992C5.80469 3.4218 5.94738 3.27734 6.1257 3.27734H6.12887C6.30719 3.27734 6.45145 3.4218 6.45145 3.59992C6.45145 3.77805 6.30715 3.9225 6.12883 3.9225Z" fill="#F2F2F6"/>
<path d="M6.12883 6.50355C5.95051 6.50355 5.80469 6.3591 5.80469 6.18098C5.80469 6.00285 5.94738 5.8584 6.1257 5.8584H6.12887C6.30719 5.8584 6.45145 6.00285 6.45145 6.18098C6.45145 6.3591 6.30715 6.50355 6.12883 6.50355Z" fill="#F2F2F6"/>
<path d="M8.06828 2.63246C7.88996 2.63246 7.74414 2.48801 7.74414 2.30988C7.74414 2.13176 7.88684 1.9873 8.06516 1.9873H8.06832C8.24664 1.9873 8.3909 2.13176 8.3909 2.30988C8.39086 2.48805 8.2466 2.63246 8.06828 2.63246Z" fill="#F2F2F6"/>
<path d="M8.06828 5.21254C7.88996 5.21254 7.74414 5.06809 7.74414 4.88996C7.74414 4.71184 7.88684 4.56738 8.06516 4.56738H8.06832C8.24664 4.56738 8.3909 4.71184 8.3909 4.88996C8.3909 5.06809 8.2466 5.21254 8.06828 5.21254Z" fill="#F2F2F6"/>
<path d="M8.06828 3.9225C7.88996 3.9225 7.74414 3.77805 7.74414 3.59992C7.74414 3.4218 7.88684 3.27734 8.06516 3.27734H8.06832C8.24664 3.27734 8.3909 3.4218 8.3909 3.59992C8.3909 3.77805 8.2466 3.9225 8.06828 3.9225Z" fill="white"/>
<path d="M8.06828 6.50355C7.88996 6.50355 7.74414 6.3591 7.74414 6.18098C7.74414 6.00285 7.88684 5.8584 8.06516 5.8584H8.06832C8.24664 5.8584 8.3909 6.00285 8.3909 6.18098C8.3909 6.3591 8.2466 6.50355 8.06828 6.50355Z" fill="white"/>
<path d="M0.117188 11.0762L0.791406 11.6089H20V9.76562H0.645156L0.117188 11.0762Z" fill="#F2F2F6"/>
<path d="M0 9.76566V11.609H0.791406C0.697617 11.3816 0.645195 11.1329 0.645195 10.8716V9.76562H0L0 9.76566Z" fill="#E1E1E6"/>
</svg>
